<svg width="24" height="22" viewBox="0 0 24 22" fill="none" xmlns="http://www.w3.org/2000/svg">
<g opacity="0.5" clip-path="url(#clip0)">
<path fill-rule="evenodd" clip-rule="evenodd" d="M11.972 1.54084C14.4692 1.54084 16.7429 2.48634 18.4473 4.03435C17.6119 4.0122 16.7783 4.50284 16.7438 5.62636C16.6735 7.89767 19.4926 8.38149 17.9736 12.9501L16.7171 16.7291L13.2949 6.76904C13.2419 6.61487 13.3035 6.52713 13.4954 6.52713H14.4629C14.5131 6.52713 14.5542 6.48471 14.5542 6.43276V5.86657C14.5542 5.81464 14.513 5.77008 14.4629 5.77222C12.6307 5.85138 10.8092 5.85192 8.99881 5.77222C8.94838 5.77009 8.90743 5.81481 8.90743 5.86677V6.43296C8.90743 6.48486 8.94855 6.52733 8.99882 6.52733H9.97162C10.188 6.52733 10.2486 6.59857 10.2996 6.73639L11.7057 10.5358L9.59053 16.8464L6.11364 6.72787C6.07054 6.60096 6.1227 6.52728 6.24641 6.52728H7.35487C7.40513 6.52728 7.44623 6.48486 7.44623 6.4329V5.86672C7.44623 5.81479 7.40498 5.76976 7.35487 5.77237C6.19188 5.8334 5.02446 5.84568 3.93699 5.85671C5.64349 3.25941 8.60445 1.54066 11.9714 1.54066L11.9714 1.54063L11.972 1.54084ZM20.3914 6.49532C21.127 7.83438 21.5446 9.3686 21.5446 10.9988C21.5446 14.5765 19.5327 17.6905 16.5664 19.2978L19.5519 10.943C20.0144 9.64994 20.4437 7.90248 20.3911 6.49532H20.3911H20.3914ZM15.1769 19.9128C14.1747 20.265 13.0962 20.4571 11.972 20.4571C11.0034 20.4571 10.0689 20.3144 9.18783 20.0504L12.1369 11.7002L15.1769 19.9132L15.1769 19.9128ZM7.8757 19.5491C4.63844 18.0322 2.39915 14.7735 2.39915 10.9992C2.39915 9.60003 2.70721 8.27182 3.25932 7.07684L7.87591 19.5493L7.87593 19.5492L7.8757 19.5491ZM11.9717 0.653272C17.7534 0.653272 22.4424 5.28619 22.4424 10.9988C22.4424 16.7113 17.7534 21.3443 11.9717 21.3443C6.18997 21.3443 1.50097 16.7113 1.50097 10.9988C1.50097 5.28619 6.18997 0.653272 11.9717 0.653272ZM11.9717 -0.000652313C18.119 -0.000652313 23.1045 4.92529 23.1045 10.999C23.1045 17.0728 18.119 21.9987 11.9717 21.9987C5.82444 21.9987 0.838867 17.0728 0.838867 10.999C0.838867 4.92529 5.82444 -0.000652313 11.9717 -0.000652313Z" fill="#3AC8E8"/>
</g>
<defs>
<clipPath id="clip0">
<rect width="22.2664" height="22" fill="white" transform="translate(0.839722)"/>
</clipPath>
</defs>
</svg>
