<svg width="24" height="26" viewBox="0 0 24 26" fill="none" xmlns="http://www.w3.org/2000/svg">
<g opacity="0.5" clip-path="url(#clip0)">
<path d="M2.12058 0.513428C1.90763 0.513428 1.74897 0.700482 1.76789 0.929045L3.56309 22.6331C3.58201 22.8617 3.76528 23.099 3.97054 23.1604L11.5885 25.4403C11.7937 25.5017 12.1294 25.5017 12.3347 25.4405L19.9758 23.1568C20.181 23.0955 20.3645 22.8582 20.3834 22.6297L22.1816 0.929045C22.2007 0.700482 22.0418 0.513428 21.8289 0.513428H2.12058ZM18.3585 5.49118C18.3415 5.69506 18.3122 6.04902 18.2933 6.27763L18.246 6.84709C18.2269 7.0756 18.1998 7.40245 18.1855 7.57331C18.1713 7.74422 18.1577 7.88406 18.1552 7.88406C18.1528 7.88406 17.9766 7.88406 17.7637 7.88406H12.3619C12.1489 7.88406 11.973 7.88406 11.9707 7.88406C11.9683 7.88406 11.7922 7.88406 11.5792 7.88406H8.7343C8.52134 7.88406 8.36269 8.07111 8.3816 8.29968L8.54754 10.299C8.56646 10.5275 8.75625 10.7146 8.96916 10.7146H11.5793C11.7922 10.7146 11.9683 10.7146 11.9707 10.7146C11.9731 10.7146 12.149 10.7146 12.3619 10.7146H16.8484C17.0613 10.7146 17.3908 10.7146 17.5806 10.7146C17.7703 10.7146 17.9115 10.8815 17.8943 11.0853C17.877 11.2892 17.8475 11.6433 17.8287 11.8718L17.2951 18.3175C17.276 18.5461 17.252 18.8381 17.2416 18.9665C17.231 19.0948 17.0545 19.2499 16.8493 19.3113L12.3479 20.6566C12.1427 20.7179 11.9722 20.7686 11.969 20.7694C11.9658 20.7701 11.7954 20.7205 11.5901 20.6592L7.08386 19.3114C6.87864 19.25 6.69528 19.0128 6.67641 18.7842L6.38634 15.275C6.36742 15.0464 6.52626 14.8594 6.73922 14.8594H7.15047C7.36343 14.8594 7.71187 14.8594 7.92478 14.8594H8.53804C8.751 14.8594 8.9406 15.0464 8.95966 15.275L9.07342 16.6487C9.09234 16.8774 9.27592 17.1133 9.48155 17.1731L11.5894 17.7867C11.7948 17.8465 11.9638 17.8955 11.9648 17.8955C11.9657 17.8955 12.1346 17.8464 12.3402 17.7866L14.4518 17.1716C14.6573 17.1117 14.8411 16.8757 14.8601 16.6472L15.0891 13.8949C15.1081 13.6663 14.9495 13.4793 14.7365 13.4793H12.3619C12.149 13.4793 11.973 13.4793 11.9707 13.4793C11.9684 13.4793 11.7922 13.4793 11.5793 13.4793H6.62441C6.41145 13.4793 6.22185 13.2922 6.20293 13.0636L5.64108 6.27768C5.62216 6.04907 5.59284 5.6952 5.57587 5.49122C5.55908 5.28734 5.71941 5.12048 5.93237 5.12048H11.5793C11.7922 5.12048 11.9683 5.12048 11.9707 5.12048C11.9731 5.12048 12.149 5.12048 12.3619 5.12048H18.002C18.2149 5.12038 18.3753 5.2872 18.3585 5.49118Z" fill="#DD512A"/>
</g>
<defs>
<clipPath id="clip0">
<rect width="23.169" height="24.973" fill="white" transform="translate(0.390991 0.513428)"/>
</clipPath>
</defs>
</svg>
