<svg width="30" height="30" viewBox="0 0 30 30" fill="none" xmlns="http://www.w3.org/2000/svg">
<path d="M6.25 3.75H8.75V6.25H6.25V12.5C6.25 13.163 5.98661 13.7989 5.51777 14.2678C5.04893 14.7366 4.41304 15 3.75 15C4.41304 15 5.04893 15.2634 5.51777 15.7322C5.98661 16.2011 6.25 16.837 6.25 17.5V23.75H8.75V26.25H6.25C4.9125 25.9125 3.75 25.125 3.75 23.75V18.75C3.75 18.087 3.48661 17.4511 3.01777 16.9822C2.54893 16.5134 1.91304 16.25 1.25 16.25H0V13.75H1.25C1.91304 13.75 2.54893 13.4866 3.01777 13.0178C3.48661 12.5489 3.75 11.913 3.75 11.25V6.25C3.75 5.58696 4.01339 4.95107 4.48223 4.48223C4.95107 4.01339 5.58696 3.75 6.25 3.75ZM23.75 3.75C24.413 3.75 25.0489 4.01339 25.5178 4.48223C25.9866 4.95107 26.25 5.58696 26.25 6.25V11.25C26.25 11.913 26.5134 12.5489 26.9822 13.0178C27.4511 13.4866 28.087 13.75 28.75 13.75H30V16.25H28.75C28.087 16.25 27.4511 16.5134 26.9822 16.9822C26.5134 17.4511 26.25 18.087 26.25 18.75V23.75C26.25 24.413 25.9866 25.0489 25.5178 25.5178C25.0489 25.9866 24.413 26.25 23.75 26.25H21.25V23.75H23.75V17.5C23.75 16.837 24.0134 16.2011 24.4822 15.7322C24.9511 15.2634 25.587 15 26.25 15C25.587 15 24.9511 14.7366 24.4822 14.2678C24.0134 13.7989 23.75 13.163 23.75 12.5V6.25H21.25V3.75H23.75ZM15 18.75C15.3315 18.75 15.6495 18.8817 15.8839 19.1161C16.1183 19.3505 16.25 19.6685 16.25 20C16.25 20.3315 16.1183 20.6495 15.8839 20.8839C15.6495 21.1183 15.3315 21.25 15 21.25C14.6685 21.25 14.3505 21.1183 14.1161 20.8839C13.8817 20.6495 13.75 20.3315 13.75 20C13.75 19.6685 13.8817 19.3505 14.1161 19.1161C14.3505 18.8817 14.6685 18.75 15 18.75ZM10 18.75C10.3315 18.75 10.6495 18.8817 10.8839 19.1161C11.1183 19.3505 11.25 19.6685 11.25 20C11.25 20.3315 11.1183 20.6495 10.8839 20.8839C10.6495 21.1183 10.3315 21.25 10 21.25C9.66848 21.25 9.35054 21.1183 9.11612 20.8839C8.8817 20.6495 8.75 20.3315 8.75 20C8.75 19.6685 8.8817 19.3505 9.11612 19.1161C9.35054 18.8817 9.66848 18.75 10 18.75ZM20 18.75C20.3315 18.75 20.6495 18.8817 20.8839 19.1161C21.1183 19.3505 21.25 19.6685 21.25 20C21.25 20.3315 21.1183 20.6495 20.8839 20.8839C20.6495 21.1183 20.3315 21.25 20 21.25C19.6685 21.25 19.3505 21.1183 19.1161 20.8839C18.8817 20.6495 18.75 20.3315 18.75 20C18.75 19.6685 18.8817 19.3505 19.1161 19.1161C19.3505 18.8817 19.6685 18.75 20 18.75Z" fill="#010101"/>
</svg>
