<svg width="24" height="26" viewBox="0 0 24 26" fill="none" xmlns="http://www.w3.org/2000/svg">
<g opacity="0.5" clip-path="url(#clip0)">
<path fill-rule="evenodd" clip-rule="evenodd" d="M18.9723 22.5459L20.7657 1.0922L20.7891 0.810791H20.5249H0.839794H0.575562L0.599029 1.0922L2.3905 22.5494L2.40543 22.7284L2.56681 22.7761L10.6059 25.1594H10.7349L18.7959 22.7726L18.9573 22.7249L18.9723 22.5459Z" fill="#1572B6"/>
<path fill-rule="evenodd" clip-rule="evenodd" d="M19.2312 2.33266H10.6823V23.5959L17.6255 21.54L19.2312 2.33266Z" fill="#35A8DB"/>
<path fill-rule="evenodd" clip-rule="evenodd" d="M10.6722 8.0449L4.64246 10.7267L4.84246 13.3818L10.6722 10.7199L16.8734 7.88854L17.1305 5.17244L10.6722 8.0449Z" fill="#E9E9E8"/>
<path fill-rule="evenodd" clip-rule="evenodd" d="M10.6725 5.17265H10.7172H10.7681H10.8189H10.8698H10.9207H10.9716H11.0225H11.0734H11.1244H11.1753H11.2262H11.2771H11.328H11.3789H11.4298H11.4808H11.5315H11.5824H11.6333H11.6843H11.7352H11.7861H11.837H11.8879H11.9388H11.9897H12.0407H12.0914H12.1423H12.1933H12.2442H12.2951H12.346H12.3969H12.4478H12.4987H12.5496H12.6006H12.6515H12.7024H12.7533H12.8042H12.855H12.9059H12.9568H13.0077H13.0586H13.1096H13.1605H13.2114H13.2623H13.3132H13.3641H13.415H13.466H13.5167H13.5676H13.6185H13.6695H13.7204H13.7713H13.8222H13.8731H13.924H13.9749H14.0259H14.0768H14.1275H14.1784H14.2294H14.2803H14.3312H14.3821H14.433H14.4839H14.5348H14.5858H14.6367H14.6876H14.7385H14.7894H14.8402H14.8911H14.942H14.9929H15.0438H15.0947H15.1457H15.1966H15.2475H15.2984H15.3493H15.4002H15.451H15.5019H15.5528H15.6037H15.6547H15.7056H15.7565H15.8074H15.8583H15.9092H15.9601H16.011H16.062H16.1129H16.1636H16.2146H16.2655H16.3164H16.3673H16.4182H16.4691H16.52H16.571H16.6219H16.6728H16.7237H16.7746H16.8255H16.8763H16.9272H16.9781H17.029H17.0799H17.1309L17.0799 5.71026L17.029 6.24781L16.9781 6.78537L16.9272 7.3231L16.8763 7.86067L16.8738 7.88862H16.8255H16.7746H16.7237H16.6728H16.6219H16.571H16.52H16.4691H16.4182H16.3673H16.3164H16.2655H16.2146H16.1636H16.1129H16.062H16.011H15.9601H15.9092H15.8583H15.8074H15.7565H15.7056H15.6547H15.6037H15.5528H15.5019H15.451H15.4002H15.3493H15.2984H15.2475H15.1966H15.1457H15.0947H15.0438H14.9929H14.942H14.8911H14.8402H14.7894H14.7385H14.6876H14.6367H14.5858H14.5348H14.4839H14.433H14.3821H14.3312H14.2803H14.2294H14.1784H14.1275H14.0768H14.0259H13.9749H13.924H13.8731H13.8222H13.7713H13.7204H13.6695H13.6185H13.5676H13.5167H13.466H13.415H13.3641H13.3132H13.2623H13.2114H13.1605H13.1096H13.0586H13.0077H12.9568H12.9059H12.855H12.8042H12.7533H12.7024H12.6515H12.6006H12.5496H12.4987H12.4478H12.3969H12.346H12.2951H12.2442H12.1933H12.1423H12.0914H12.0407H11.9897H11.9388H11.8879H11.837H11.7861H11.7352H11.6843H11.6333H11.5824H11.5315H11.4808H11.4298H11.3789H11.328H11.2771H11.2262H11.1753H11.1244H11.0734H11.024H11.0225H10.9716H10.9207H10.8698H10.8189H10.7681H10.7172H10.6799H10.6725H10.6663H10.6154H10.5645H10.5135H10.4626H10.4117H10.3608H10.3099H10.259H10.2081H10.1572H10.1063H10.0554H10.0045H9.95362H9.90272H9.85181H9.80091H9.75H9.69911H9.64821H9.5973H9.5464H9.49549H9.4446H9.39369H9.34279H9.29189H9.24098H9.19008H9.13918H9.08828H9.03737H8.98647H8.93557H8.88465H8.83377H8.78286H8.73196H8.68106H8.63015H8.57926H8.52836H8.47745H8.42654H8.37564H8.32475H8.27384H8.22294H8.17204H8.12113H8.07024H8.01933H7.96843H7.91751H7.86662H7.81572H7.76482H7.71392H7.663H7.61211H7.56119H7.51029H7.45941H7.4085H7.3576H7.30668H7.25578H7.20487H7.15399H7.10309H7.05217H7.00127H6.95036H6.89948H6.84858H6.79766H6.74676H6.69587H6.64497H6.59405H6.54315H6.49225H6.44134H6.39044H6.33956H6.28864H6.23774H6.18683H6.13593H6.08502H6.03413H5.98323H5.93232H5.88142H5.83051H5.77962H5.72871H5.67781H5.62691H5.576H5.52511H5.4742H5.4233H5.3724H5.32149H5.27059H5.21969H5.16879H5.11788H5.06698H5.01608H4.96517H4.91428H4.86338H4.81247H4.76156H4.71066H4.65977H4.60886H4.55796H4.50706H4.45615H4.41414L4.40526 7.8118L4.35435 7.37186L4.30345 6.93206L4.25254 6.49209L4.20164 6.0523L4.15075 5.61248L4.09985 5.17265H4.15075H4.20164H4.25254H4.30345H4.35435H4.40526H4.45615H4.50706H4.55796H4.60886H4.65977H4.71066H4.76156H4.81247H4.86338H4.91428H4.96517H5.01608H5.06698H5.11788H5.16879H5.21969H5.27059H5.32149H5.3724H5.4233H5.4742H5.52511H5.576H5.62691H5.67781H5.72871H5.77962H5.83051H5.88142H5.93232H5.98323H6.03413H6.08502H6.13593H6.18683H6.23774H6.28864H6.33956H6.39044H6.44134H6.49225H6.54315H6.59405H6.64497H6.69587H6.74676H6.79766H6.84858H6.89948H6.95036H7.00127H7.05217H7.10309H7.15399H7.20487H7.25578H7.30668H7.3576H7.4085H7.45941H7.51029H7.56119H7.61211H7.663H7.71392H7.76482H7.81572H7.86662H7.91751H7.96843H8.01933H8.07024H8.12113H8.17204H8.22294H8.27384H8.32475H8.37564H8.42654H8.47745H8.52836H8.57926H8.63015H8.68106H8.73196H8.78286H8.83377H8.88465H8.93557H8.98647H9.03737H9.08828H9.13918H9.19008H9.24098H9.29189H9.34279H9.39369H9.4446H9.49549H9.5464H9.5973H9.64821H9.69911H9.75H9.80091H9.85181H9.90272H9.95362H10.0045H10.0554H10.1063H10.1572H10.2081H10.259H10.3099H10.3608H10.4117H10.4626H10.5135H10.5645H10.6154H10.6663H10.6725Z" fill="#E9E9E8"/>
<path fill-rule="evenodd" clip-rule="evenodd" d="M4.65149 10.7271H16.6541L16.4354 13.4124L4.85148 13.3818L4.65149 10.7271Z" fill="#E9E9E8"/>
<path fill-rule="evenodd" clip-rule="evenodd" d="M5.02637 14.8777L7.65193 14.8788L7.82324 17.0745L10.6717 17.8289L13.596 16.9524L13.7939 13.3618L16.4429 13.3174L15.9679 19.1496L10.6812 20.7978L5.35642 19.1192L5.02637 14.8777Z" fill="#E9E9E8"/>
<path fill-rule="evenodd" clip-rule="evenodd" d="M10.6825 10.7155L16.8742 7.88854L17.1313 5.17244L10.6825 8.04065V10.7155Z" fill="#FFFFFE"/>
<path fill-rule="evenodd" clip-rule="evenodd" d="M10.6825 5.17265H10.7177H10.7686H10.8194H10.8703H10.9212H10.9721H11.023H11.0739H11.1248H11.1758H11.2267H11.2776H11.3285H11.3794H11.4303H11.4812H11.532H11.5829H11.6338H11.6847H11.7357H11.7866H11.8375H11.8884H11.9393H11.9902H12.0411H12.0919H12.1428H12.1937H12.2446H12.2956H12.3465H12.3974H12.4483H12.4992H12.5501H12.601H12.652H12.7029H12.7538H12.8047H12.8555H12.9064H12.9573H13.0082H13.0591H13.11H13.1609H13.2119H13.2628H13.3137H13.3646H13.4155H13.4664H13.5172H13.5681H13.619H13.6699H13.7208H13.7718H13.8227H13.8736H13.9245H13.9754H14.0263H14.0772H14.128H14.1789H14.2298H14.2808H14.3317H14.3826H14.4335H14.4844H14.5353H14.5862H14.6372H14.6881H14.739H14.7899H14.8407H14.8916H14.9425H14.9934H15.0443H15.0952H15.1461H15.1971H15.248H15.2989H15.3498H15.4007H15.4515H15.5024H15.5533H15.6042H15.6551H15.706H15.757H15.8079H15.8588H15.9097H15.9606H16.0115H16.0624H16.1134H16.1641H16.215H16.266H16.3169H16.3678H16.4187H16.4696H16.5205H16.5714H16.6223H16.6733H16.7242H16.7751H16.826H16.8768H16.9277H16.9786H17.0295H17.0804H17.1313L17.0804 5.71026L17.0295 6.24781L16.9786 6.78537L16.9277 7.3231L16.8768 7.86067L16.8742 7.88862H16.826H16.7751H16.7242H16.6733H16.6223H16.5714H16.5205H16.4696H16.4187H16.3678H16.3169H16.266H16.215H16.1641H16.1134H16.0624H16.0115H15.9606H15.9097H15.8588H15.8079H15.757H15.706H15.6551H15.6042H15.5533H15.5024H15.4515H15.4007H15.3498H15.2989H15.248H15.1971H15.1461H15.0952H15.0443H14.9934H14.9425H14.8916H14.8407H14.7899H14.739H14.6881H14.6372H14.5862H14.5353H14.4844H14.4335H14.3826H14.3317H14.2808H14.2298H14.1789H14.128H14.0772H14.0263H13.9754H13.9245H13.8736H13.8227H13.7718H13.7208H13.6699H13.619H13.5681H13.5172H13.4664H13.4155H13.3646H13.3137H13.2628H13.2119H13.1609H13.11H13.0591H13.0082H12.9573H12.9064H12.8555H12.8047H12.7538H12.7029H12.652H12.601H12.5501H12.4992H12.4483H12.3974H12.3465H12.2956H12.2446H12.1937H12.1428H12.0919H12.0411H11.9902H11.9393H11.8884H11.8375H11.7866H11.7357H11.6847H11.6338H11.5829H11.532H11.4812H11.4303H11.3794H11.3285H11.2776H11.2267H11.1758H11.1248H11.0739H11.0245H11.023H10.9721H10.9212H10.8703H10.8194H10.7686H10.7177H10.6825V5.17265Z" fill="#FFFFFE"/>
<path fill-rule="evenodd" clip-rule="evenodd" d="M10.6821 10.7271H16.6548L16.4361 13.4124L10.6821 13.3972V10.7271Z" fill="#FFFFFE"/>
<path fill-rule="evenodd" clip-rule="evenodd" d="M10.6821 17.826L13.597 16.9524L13.7948 13.3618L16.4439 13.3174L15.9689 19.1496L10.6821 20.7978V20.7976V17.826Z" fill="#FFFFFE"/>
</g>
<defs>
<clipPath id="clip0">
<rect width="22.7999" height="24.3486" fill="white" transform="translate(0.575562 0.810791)"/>
</clipPath>
</defs>
</svg>
