<svg width="32" height="18" viewBox="0 0 32 18" fill="none" xmlns="http://www.w3.org/2000/svg">
<g opacity="0.5" clip-path="url(#clip0)">
<path d="M16.16 17.2758C24.8845 17.2758 31.9571 13.6263 31.9571 9.12435C31.9571 4.62243 24.8845 0.9729 16.16 0.9729C7.43551 0.9729 0.362915 4.62243 0.362915 9.12435C0.362915 13.6263 7.43551 17.2758 16.16 17.2758Z" fill="url(#paint0_radial)"/>
<path d="M16.1596 16.6701C24.5433 16.6701 31.3396 13.2917 31.3396 9.12429C31.3396 4.95683 24.5433 1.57844 16.1596 1.57844C7.77593 1.57844 0.979614 4.95683 0.979614 9.12429C0.979614 13.2917 7.77593 16.6701 16.1596 16.6701Z" fill="#6181B6"/>
<path d="M19.233 11.571L19.9858 7.7678C20.1586 6.90784 20.0105 6.2659 19.5662 5.8662C19.1343 5.47861 18.3938 5.28481 17.3077 5.28481H15.9995L16.3698 3.39532C16.3821 3.32265 16.3698 3.24998 16.3204 3.18942C16.2711 3.12886 16.2094 3.10463 16.1353 3.10463H14.3335C14.21 3.10463 14.1113 3.18942 14.0866 3.29843L13.2844 7.33176C13.2104 6.8715 13.0376 6.48391 12.7414 6.169C12.2107 5.5755 11.3838 5.2727 10.2608 5.2727H6.79282C6.6694 5.2727 6.57067 5.35749 6.54599 5.4665L4.92926 13.6543C4.91691 13.727 4.92926 13.7996 4.97862 13.8602C5.02799 13.9208 5.0897 13.945 5.16374 13.945H6.97794C7.10135 13.945 7.20009 13.8602 7.22477 13.7512L7.61969 11.7769H8.96491C9.66838 11.7769 10.2731 11.7042 10.7297 11.5589C11.2111 11.4014 11.643 11.1471 12.0256 10.7958C12.3341 10.5172 12.5933 10.2023 12.7908 9.86319L12.4699 11.4983C12.4575 11.571 12.4699 11.6437 12.5193 11.7042C12.5686 11.7648 12.6303 11.789 12.7044 11.789H14.5062C14.6296 11.789 14.7284 11.7042 14.7531 11.5952L15.6416 7.11374H16.8758C17.4065 7.11374 17.5546 7.21064 17.6039 7.25909C17.641 7.29542 17.715 7.44077 17.6286 7.88892L16.9128 11.5104C16.9005 11.5831 16.9128 11.6558 16.9622 11.7163C17.0115 11.7769 17.0733 11.8011 17.1473 11.8011H18.9985C19.1096 11.7648 19.2083 11.68 19.233 11.571ZM10.8902 8.42185C10.7791 8.99112 10.5693 9.40293 10.2608 9.63306C9.95223 9.86319 9.44623 9.98431 8.77979 9.98431H7.9776L8.55765 7.05318H9.59433C10.3595 7.05318 10.668 7.21064 10.7915 7.34387C10.9519 7.53767 10.9889 7.91314 10.8902 8.42185Z" fill="white"/>
<path d="M26.9341 6.16906C26.4034 5.57557 25.5765 5.27277 24.4534 5.27277H20.9608C20.8374 5.27277 20.7386 5.35755 20.714 5.46656L19.0972 13.6422C19.0849 13.7149 19.0972 13.7876 19.1466 13.8481C19.196 13.9087 19.2577 13.9329 19.3317 13.9329H21.1459C21.2693 13.9329 21.3681 13.8481 21.3927 13.7391L21.7877 11.7649H23.1329C23.8363 11.7649 24.4411 11.6922 24.8977 11.5468C25.379 11.3894 25.811 11.135 26.1936 10.7838C26.5144 10.4931 26.786 10.1661 26.9834 9.81481C27.1809 9.46356 27.329 9.07597 27.4154 8.65204C27.6252 7.59829 27.4647 6.77467 26.9341 6.16906ZM25.0458 8.42191C24.9347 8.99118 24.7249 9.403 24.4164 9.63313C24.1079 9.86326 23.6019 9.98438 22.9354 9.98438H22.1332L22.7133 7.05325H23.75C24.5151 7.05325 24.8237 7.2107 24.9471 7.34394C25.1199 7.53773 25.1569 7.91321 25.0458 8.42191Z" fill="white"/>
<path d="M9.59427 6.81105C10.2854 6.81105 10.742 6.93217 10.9765 7.18652C11.211 7.44088 11.2604 7.8648 11.137 8.47041C11.0135 9.10024 10.7667 9.5605 10.4088 9.82696C10.0509 10.0934 9.50788 10.2267 8.77973 10.2267H7.68134L8.36012 6.81105H9.59427ZM5.17603 13.6907H6.99022L7.42217 11.5227H8.9772C9.66832 11.5227 10.2237 11.45 10.668 11.3046C11.1123 11.1593 11.5072 10.9292 11.8774 10.59C12.186 10.3114 12.4328 10.0086 12.6179 9.68162C12.803 9.35459 12.9388 8.99123 13.0129 8.59153C13.2103 7.62256 13.0622 6.87161 12.5809 6.32656C12.0996 5.78152 11.3344 5.51505 10.2854 5.51505H6.79276L5.17603 13.6907Z" fill="#010101"/>
<path d="M14.3457 3.34692H16.1476L15.7156 5.51499H17.32C18.332 5.51499 19.0232 5.68456 19.4057 6.03581C19.7883 6.38706 19.8994 6.94422 19.7513 7.71939L18.9985 11.5226H17.1719L17.8877 7.90107C17.9741 7.48926 17.9371 7.21068 17.8013 7.06534C17.6656 6.91999 17.3571 6.83521 16.9004 6.83521H15.4565L14.5309 11.5226H12.729L14.3457 3.34692Z" fill="#010101"/>
<path d="M23.7499 6.81105C24.441 6.81105 24.8977 6.93217 25.1322 7.18652C25.3666 7.44088 25.416 7.8648 25.2926 8.47041C25.1692 9.10024 24.9223 9.5605 24.5644 9.82696C24.2065 10.0934 23.6635 10.2267 22.9354 10.2267H21.837L22.5158 6.81105H23.7499ZM19.3317 13.6907H21.1459L21.5778 11.5227H23.1328C23.824 11.5227 24.3793 11.45 24.8236 11.3046C25.2679 11.1593 25.6628 10.9292 26.0331 10.59C26.3416 10.3114 26.5884 10.0086 26.7736 9.68162C26.9587 9.35459 27.0944 8.99123 27.1685 8.59153C27.366 7.62256 27.2179 6.87161 26.7365 6.32656C26.2552 5.78152 25.4901 5.51505 24.441 5.51505H20.9484L19.3317 13.6907Z" fill="#010101"/>
</g>
<defs>
<radialGradient id="paint0_radial" cx="0" cy="0" r="1" gradientUnits="userSpaceOnUse" gradientTransform="translate(9.84755 3.83956) scale(20.7454 20.3599)">
<stop stop-color="white"/>
<stop offset="0.5" stop-color="#4C6B97"/>
<stop offset="1" stop-color="#231F20"/>
</radialGradient>
<clipPath id="clip0">
<rect width="31.5941" height="16.3514" fill="white" transform="translate(0.362915 0.9729)"/>
</clipPath>
</defs>
</svg>
