<svg width="30" height="30" viewBox="0 0 30 30" fill="none" xmlns="http://www.w3.org/2000/svg">
<g clip-path="url(#clip0)">
<path d="M15.9776 21.4384C12.909 19.6087 10.3489 17.0487 8.51904 13.9798L12.3936 10.1053L4.93521 2.64673L1.8096 5.77211C-0.00703865 7.58875 -0.512868 10.355 0.551433 12.6557C1.97508 15.7337 3.81231 18.5664 6.01187 21.0747C9.16654 24.672 12.993 27.5026 17.385 29.4875C19.6354 30.5044 22.3559 29.9773 24.1544 28.1787L27.3107 25.0224L19.8521 17.5639L15.9776 21.4384ZM22.9114 26.9357C21.626 28.2211 19.696 28.6026 18.109 27.8853C9.14709 23.8352 4.48202 16.9667 2.14697 11.9178C1.39097 10.2831 1.75489 8.31293 3.05265 7.01517L4.93521 5.13284L9.90744 10.1053L6.33093 13.682L6.65296 14.2616C8.76577 18.0647 11.8928 21.1919 15.6961 23.3047L16.2756 23.6267L19.8521 20.0502L24.8246 25.0224L22.9114 26.9357Z" fill="#010101"/>
<path fill-rule="evenodd" clip-rule="evenodd" d="M20.1022 10.569C19.0948 9.58963 17.7757 9 16.5 9V7.5C18.2243 7.5 19.9052 8.28537 21.1478 9.4935C22.3934 10.7045 23.25 12.3904 23.25 14.25H21.75C21.75 12.8596 21.1066 11.5455 20.1022 10.569Z" fill="#010101"/>
<path fill-rule="evenodd" clip-rule="evenodd" d="M22.1647 8.45962C20.5948 6.93338 18.5257 6 16.5 6V4.5C18.9743 4.5 21.4052 5.62912 23.2103 7.38413C25.0184 9.14198 26.25 11.5779 26.25 14.25H24.75C24.75 12.0471 23.7316 9.98302 22.1647 8.45962Z" fill="#010101"/>
</g>
<defs>
<clipPath id="clip0">
<rect width="30" height="30" fill="white"/>
</clipPath>
</defs>
</svg>
