<svg width="24" height="26" viewBox="0 0 24 26" fill="none" xmlns="http://www.w3.org/2000/svg">
<g opacity="0.5" clip-path="url(#clip0)">
<path d="M2.06605 6.80552C0.0676261 9.87269 0.316599 13.8633 1.84295 17.1225C1.87928 17.2007 1.91731 17.2775 1.95485 17.3546C1.97876 17.4031 2.00134 17.4532 2.02623 17.5011C2.04022 17.53 2.05603 17.5581 2.07068 17.5857C2.09677 17.6378 2.12331 17.687 2.15039 17.7378C2.19781 17.827 2.24649 17.9157 2.29609 18.0044C2.32361 18.0532 2.35078 18.1019 2.37914 18.1506C2.43418 18.2455 2.49056 18.3397 2.54832 18.4332C2.57236 18.4732 2.59574 18.5132 2.62041 18.5518C2.69999 18.6787 2.78135 18.8054 2.86524 18.9296C2.86743 18.9327 2.86983 18.9361 2.87228 18.9392C2.88555 18.9593 2.90029 18.9789 2.91369 18.9988C2.98624 19.1058 3.06123 19.2113 3.13679 19.3159C3.16467 19.3539 3.19295 19.392 3.22096 19.4302C3.28847 19.5209 3.35727 19.611 3.42718 19.7009C3.45337 19.7344 3.47959 19.7682 3.50605 19.8012C3.59983 19.9191 3.69557 20.0366 3.79354 20.1519C3.79523 20.154 3.7975 20.1563 3.79933 20.1584C3.80329 20.1633 3.80681 20.1664 3.81033 20.171C3.90585 20.2825 4.0035 20.3915 4.10254 20.5004C4.13318 20.5338 4.16462 20.5676 4.1961 20.6012C4.27278 20.6834 4.35067 20.7641 4.42935 20.8454C4.46133 20.8776 4.49299 20.9109 4.52474 20.9421C4.62988 21.0478 4.73604 21.1514 4.84434 21.2525C4.84625 21.2546 4.84759 21.2562 4.84941 21.2569C4.86776 21.2745 4.88682 21.2913 4.90494 21.3075C5.00046 21.3959 5.09754 21.4836 5.19533 21.5697C5.23519 21.604 5.27549 21.6381 5.31561 21.6721C5.39554 21.7405 5.47628 21.8078 5.55768 21.874C5.60065 21.9091 5.64376 21.9442 5.68709 21.9792C5.77682 22.0494 5.86722 22.1192 5.95864 22.1871C5.99199 22.2128 6.02419 22.2376 6.05767 22.2621C6.06685 22.2691 6.07531 22.2763 6.0847 22.2829C6.17141 22.3464 6.25989 22.4081 6.34837 22.4692C6.3864 22.4962 6.42421 22.5241 6.4626 22.5503C6.59841 22.6419 6.73619 22.7327 6.87549 22.8207C6.91343 22.8436 6.95155 22.8663 6.98958 22.8892C7.09195 22.9524 7.19495 23.0143 7.29951 23.0749C7.35589 23.1074 7.41396 23.138 7.47082 23.169C7.5447 23.2105 7.61786 23.2523 7.69272 23.292C7.70973 23.3013 7.72737 23.3101 7.74415 23.3186C7.77408 23.334 7.80449 23.3493 7.83482 23.3655C7.95096 23.4248 8.06807 23.4828 8.18617 23.5393C8.21142 23.5511 8.23569 23.563 8.26067 23.5746C8.39604 23.6378 8.53258 23.6989 8.67071 23.7569C8.7038 23.7711 8.73724 23.7848 8.7706 23.799C8.89822 23.8513 9.02754 23.9031 9.1573 23.9519C9.17382 23.9581 9.18968 23.9638 9.20593 23.9697C9.34852 24.0231 9.49244 24.0723 9.63744 24.1206C9.67195 24.1314 9.70673 24.1433 9.74151 24.1541C9.88904 24.2015 10.0347 24.258 10.187 24.2881C19.8512 26.1701 22.6584 18.086 22.6584 18.086C20.3009 21.3662 16.1158 22.2316 12.1506 21.2681C12.0003 21.232 11.8546 21.182 11.708 21.1356C11.6708 21.1238 11.6343 21.1119 11.5976 21.0998C11.4545 21.0529 11.3126 21.0036 11.1715 20.9518C11.1522 20.9446 11.1327 20.9369 11.113 20.9293C10.9866 20.8819 10.8617 20.8319 10.7372 20.7805C10.7021 20.7656 10.6669 20.7514 10.6319 20.7364C10.4955 20.6789 10.36 20.6188 10.2263 20.5562C10.1986 20.5438 10.1723 20.5306 10.1453 20.5177C10.0302 20.4623 9.91647 20.4063 9.80287 20.348C9.77027 20.3311 9.73741 20.3146 9.7041 20.2973C9.61522 20.2511 9.52709 20.2018 9.43945 20.1536C9.38067 20.1206 9.32091 20.0892 9.26284 20.0548C9.15561 19.9935 9.05034 19.9298 8.94565 19.8648C8.91002 19.8434 8.87417 19.823 8.83842 19.8011C8.69908 19.7134 8.56143 19.6227 8.42526 19.5306C8.38772 19.5051 8.35089 19.4778 8.31384 19.4515C8.21507 19.3834 8.11666 19.3143 8.01994 19.2425C7.98783 19.2199 7.9567 19.1946 7.92517 19.1716C7.83157 19.1013 7.73912 19.0296 7.64721 18.9571C7.60566 18.9243 7.56452 18.8903 7.52408 18.8575C7.43992 18.7887 7.35616 18.7196 7.27333 18.6481C7.23601 18.6164 7.19847 18.5845 7.16151 18.5525C7.05611 18.4599 6.95204 18.3671 6.84917 18.2716C6.83844 18.2613 6.82673 18.2515 6.81501 18.241C6.70391 18.1365 6.59454 18.0295 6.48673 17.922C6.45534 17.89 6.42492 17.859 6.39424 17.8268C6.31422 17.7459 6.23562 17.6638 6.15836 17.58C6.12745 17.547 6.09628 17.5143 6.06587 17.4815C5.9675 17.3737 5.871 17.2649 5.77637 17.1543C5.77165 17.1489 5.76671 17.144 5.76212 17.1381C5.66202 17.0212 5.56423 16.9018 5.46848 16.7811C5.44252 16.7481 5.41732 16.7162 5.39158 16.6837C5.32024 16.5918 5.24948 16.4987 5.18041 16.4046C5.15432 16.3711 5.1284 16.3363 5.10275 16.3017C5.0197 16.1865 4.93834 16.0718 4.85863 15.9546C2.65706 12.7483 1.86615 8.32517 3.62561 4.69275" fill="#010101"/>
<path d="M8.26905 4.22136C6.82384 6.44246 6.90235 9.41518 8.02965 11.7642C8.21873 12.158 8.43123 12.5399 8.66894 12.9037C8.88541 13.2351 9.12534 13.6294 9.41265 13.8955C9.51699 14.018 9.62578 14.1376 9.73697 14.255C9.76512 14.286 9.79384 14.3151 9.82256 14.3455C9.93037 14.4569 10.0402 14.567 10.1537 14.6738C10.1584 14.6779 10.1626 14.6828 10.1673 14.6861C10.1685 14.6877 10.1697 14.6882 10.1704 14.6898C10.296 14.8071 10.4256 14.9203 10.5573 15.0314C10.5865 15.0552 10.6155 15.0802 10.6451 15.1047C10.777 15.2127 10.9117 15.3193 11.0498 15.4204C11.0539 15.4234 11.0574 15.4265 11.0615 15.4302C11.1224 15.4748 11.1845 15.5168 11.2461 15.5599C11.2758 15.5805 11.304 15.6025 11.3338 15.6218C11.4323 15.6891 11.5322 15.7549 11.6337 15.818C11.6481 15.8276 11.6622 15.8353 11.6761 15.8441C11.7636 15.898 11.8524 15.9511 11.9414 16.0024C11.9724 16.0212 12.004 16.0374 12.0357 16.055C12.0972 16.0893 12.1586 16.1241 12.2213 16.1576C12.2303 16.1623 12.2401 16.1669 12.2491 16.171C12.3765 16.238 12.5051 16.3026 12.6362 16.3634C12.6641 16.3765 12.6931 16.3884 12.7217 16.401C12.8264 16.4485 12.9324 16.4949 13.0386 16.5385C13.0838 16.5568 13.1294 16.5741 13.1746 16.5919C13.271 16.6301 13.3682 16.6651 13.4658 16.7002C13.51 16.7151 13.5533 16.7306 13.5975 16.745C13.7365 16.7909 13.8738 16.8492 14.0186 16.875C21.4803 18.1953 23.203 12.0599 23.203 12.0599C21.65 14.4478 18.6428 15.5879 15.4338 14.6982C15.2913 14.6583 15.1509 14.6147 15.0114 14.5677C14.9686 14.5538 14.9266 14.5389 14.8843 14.5239C14.7851 14.4896 14.6864 14.453 14.5886 14.4151C14.5438 14.3978 14.4991 14.3803 14.4552 14.3622C14.348 14.3182 14.2421 14.2727 14.137 14.225C14.1084 14.2119 14.0793 14.2003 14.0513 14.1864C13.9196 14.1253 13.7899 14.0605 13.6619 13.9935C13.5961 13.9589 13.5316 13.9226 13.4668 13.8873C13.4294 13.8664 13.3917 13.8457 13.3542 13.8251C13.271 13.7768 13.1885 13.7271 13.107 13.6763C13.0878 13.6645 13.0677 13.6534 13.0481 13.6407C12.947 13.5775 12.8475 13.5126 12.7489 13.4457C12.7185 13.4249 12.6893 13.4024 12.6589 13.3813C12.5938 13.3362 12.5288 13.2905 12.4651 13.2443C12.3276 13.1433 12.1937 13.037 12.0618 12.9292C12.0314 12.9037 12.0008 12.8787 11.971 12.8531C10.5662 11.6687 9.45309 10.0501 8.92375 8.21501C8.36898 6.3114 8.48841 4.17514 9.44957 2.4412" fill="#010101"/>
<path d="M13.4862 2.29063C12.6343 3.62952 12.5506 5.29232 13.1417 6.77121C13.7651 8.34089 15.0425 9.57226 16.5336 10.1558C16.595 10.1803 16.6564 10.2022 16.7188 10.2247C16.7459 10.2337 16.7728 10.2435 16.8004 10.252C16.8882 10.2817 16.9755 10.316 17.0663 10.3342C21.1863 11.1845 22.3038 8.07629 22.6013 7.6188C21.6222 9.124 19.9773 9.48533 17.9588 8.96235C17.7992 8.92055 17.6239 8.8592 17.4703 8.8009C17.2733 8.72609 17.0792 8.64049 16.8904 8.54381C16.532 8.35991 16.1904 8.13664 15.8735 7.88131C14.0674 6.41763 12.9452 3.62562 14.1238 1.35164" fill="#010101"/>
</g>
<defs>
<clipPath id="clip0">
<rect width="22.7999" height="24.3486" fill="white" transform="translate(0.53772 0.810791)"/>
</clipPath>
</defs>
</svg>
