<svg width="30" height="30" viewBox="0 0 30 30" fill="none" xmlns="http://www.w3.org/2000/svg">
<path d="M25.3125 3.75H0.9375V22.5H25.3125V3.75ZM23.4375 20.625H2.8125V5.625H23.4375V20.625Z" fill="#010101"/>
<path d="M27.1875 8.4375V24.375H5.625V26.25H29.0625V8.4375H27.1875Z" fill="#010101"/>
<path d="M13.125 17.7222C15.4512 17.7222 17.3438 15.6634 17.3438 13.1328C17.3438 10.6022 15.4512 8.5434 13.125 8.5434C10.7988 8.5434 8.90625 10.6021 8.90625 13.1328C8.90625 15.6635 10.7988 17.7222 13.125 17.7222ZM13.125 10.4184C14.4173 10.4184 15.4688 11.6361 15.4688 13.1328C15.4688 14.6295 14.4173 15.8472 13.125 15.8472C11.8327 15.8472 10.7812 14.6295 10.7812 13.1328C10.7812 11.6361 11.8327 10.4184 13.125 10.4184Z" fill="#010101"/>
<path d="M4.6875 7.96875H6.5625V18.2812H4.6875V7.96875Z" fill="#010101"/>
<path d="M19.6875 7.96875H21.5625V18.2812H19.6875V7.96875Z" fill="#010101"/>
</svg>
