<svg width="22" height="22" viewBox="0 0 22 22" fill="none" xmlns="http://www.w3.org/2000/svg">
<g opacity="0.5" clip-path="url(#clip0)">
<path d="M21.8606 18.1846C21.8606 20.1195 20.2583 21.7026 18.3 21.7026H4.05756C2.09922 21.7026 0.496948 20.1195 0.496948 18.1846V4.1125C0.496948 2.17759 2.09922 0.594482 4.05756 0.594482H18.3C20.2583 0.594482 21.8606 2.17759 21.8606 4.1125V18.1846Z" fill="#563D7C"/>
<path d="M6.30212 5.1817H12.3587C13.4757 5.1817 14.3728 5.43348 15.0466 5.94049C15.7203 6.44749 16.0589 7.20973 16.0589 8.2341C16.0589 8.85492 15.9053 9.38607 15.5981 9.82755C15.2909 10.269 14.8511 10.6139 14.2786 10.8554V10.8899C15.0466 11.052 15.6295 11.4107 16.024 11.966C16.4184 12.5247 16.6174 13.2214 16.6174 14.063C16.6174 14.5458 16.5302 14.9977 16.3556 15.415C16.1811 15.8358 15.9088 16.1979 15.5353 16.5014C15.1618 16.805 14.687 17.0464 14.104 17.2257C13.5211 17.4051 12.8299 17.4948 12.027 17.4948H6.30212V5.1817ZM8.48387 10.338H12.0445C12.5681 10.338 13.0044 10.1931 13.3535 9.89653C13.7026 9.59991 13.8771 9.17913 13.8771 8.62729C13.8771 8.00646 13.7201 7.56843 13.4059 7.31665C13.0917 7.06487 12.6379 6.93726 12.0445 6.93726H8.48387V10.338ZM8.48387 15.7358H12.3412C13.0044 15.7358 13.5211 15.5667 13.8841 15.2253C14.2507 14.8873 14.4357 14.4044 14.4357 13.7836C14.4357 13.1731 14.2542 12.7075 13.8841 12.3764C13.5141 12.0453 13.0044 11.8866 12.3412 11.8866H8.48387V15.7358Z" fill="white"/>
</g>
<defs>
<clipPath id="clip0">
<rect width="21.3637" height="21.1081" fill="white" transform="translate(0.496948 0.594482)"/>
</clipPath>
</defs>
</svg>
