<svg width="22" height="24" viewBox="0 0 22 24" fill="none" xmlns="http://www.w3.org/2000/svg">
<g opacity="0.5" clip-path="url(#clip0)">
<path d="M21.5621 0.702881H0.158081V23.5608H21.5621V0.702881Z" fill="#F7DF1E"/>
<path d="M14.5363 18.5608C14.9674 19.3126 15.5283 19.8652 16.5204 19.8652C17.3538 19.8652 17.8862 19.4203 17.8862 18.8057C17.8862 18.0692 17.3392 17.8083 16.4219 17.3798L15.9191 17.1494C14.4677 16.4891 13.5035 15.6618 13.5035 13.913C13.5035 12.3021 14.6528 11.0757 16.4491 11.0757C17.7279 11.0757 18.6472 11.551 19.3097 12.7955L17.7435 13.8695C17.3986 13.2091 17.0266 12.949 16.4491 12.949C15.8599 12.949 15.4866 13.3481 15.4866 13.8695C15.4866 14.5139 15.8603 14.7747 16.7232 15.1738L17.2261 15.4039C18.935 16.1865 19.8999 16.9843 19.8999 18.7781C19.8999 20.712 18.4773 21.7714 16.5669 21.7714C14.699 21.7714 13.4922 20.8208 12.9018 19.5749L14.5363 18.5608ZM7.43118 18.7469C7.74714 19.3456 8.03457 19.8517 8.72561 19.8517C9.38642 19.8517 9.80329 19.5756 9.80329 18.502V11.1984H11.8146V18.531C11.8146 20.7552 10.5935 21.7674 8.81123 21.7674C7.20083 21.7674 6.26823 20.8774 5.79395 19.8055L7.43118 18.7469Z" fill="#010101"/>
</g>
<defs>
<clipPath id="clip0">
<rect width="21.404" height="22.8579" fill="white" transform="translate(0.158081 0.702881)"/>
</clipPath>
</defs>
</svg>
